<?xml version="1.0" encoding="iso-8859-1"?>
<!-- Generator: Adobe Illustrator 19.0.0, SVG Export Plug-In . SVG Version: 6.00 Build 0)  -->
<svg version="1.1" id="Capa_1" xmlns="http://www.w3.org/2000/svg" xmlns:xlink="http://www.w3.org/1999/xlink" x="0px" y="0px"
	 viewBox="0 0 512 512" style="enable-background:new 0 0 512 512;" xml:space="preserve">
<g>
	<g>
		<path d="M152.63,223.68c-4.142,0-7.5,3.358-7.5,7.5v20.099c0,4.141,3.358,7.499,7.5,7.499c4.142,0,7.5-3.358,7.5-7.5V231.18
			C160.13,227.038,156.773,223.68,152.63,223.68z"/>
	</g>
</g>
<g>
	<g>
		<path d="M166.319,273.32h-27.375c-4.142,0-7.5,3.358-7.5,7.5c0,4.142,3.358,7.5,7.5,7.5h27.375c4.142,0,7.5-3.358,7.5-7.5
			C173.819,276.678,170.461,273.32,166.319,273.32z"/>
	</g>
</g>
<g>
	<g>
		<path d="M359.368,223.68c-4.142,0-7.5,3.358-7.5,7.5v20.099c0,4.141,3.358,7.499,7.5,7.499c4.142,0,7.5-3.358,7.5-7.5V231.18
			C366.868,227.038,363.51,223.68,359.368,223.68z"/>
	</g>
</g>
<g>
	<g>
		<path d="M373.055,273.32H345.68c-4.142,0-7.5,3.358-7.5,7.5c0,4.142,3.358,7.5,7.5,7.5h27.375c4.142,0,7.5-3.358,7.5-7.5
			C380.555,276.678,377.197,273.32,373.055,273.32z"/>
	</g>
</g>
<g>
	<g>
		<path d="M279.424,265.858c-3.119-2.726-7.856-2.408-10.583,0.711c-3.119,3.569-7.8,5.616-12.841,5.616s-9.722-2.047-12.841-5.616
			c-2.726-3.119-7.464-3.437-10.583-0.711s-3.437,7.464-0.711,10.583c5.968,6.828,14.766,10.744,24.135,10.744
			c9.37,0,18.167-3.916,24.135-10.744C282.861,273.322,282.542,268.584,279.424,265.858z"/>
	</g>
</g>
<g>
	<g>
		<path d="M480.394,194.105c-4.497-40.66-20.707-79.014-46.988-111.076c-4.69-5.729-9.854-11.4-15.347-16.857
			c-2.939-2.92-7.688-2.903-10.606,0.035c-2.919,2.938-2.903,7.687,0.035,10.606c5.13,5.097,9.946,10.385,14.315,15.721
			c21.533,26.269,35.796,57.061,41.74,89.849c-2.787-1.176-5.709-2.107-8.764-2.774c-5.337-1.165-10.599-0.89-16.017-0.89
			c-0.589,0.062-8.47,1.704-8.493,1.65c-0.595-1.355-1.168-2.73-1.724-4.123c-4.189-10.531-7.079-21.552-8.91-32.729
			c-0.609-3.717-1.619-7.274-2.98-10.632c-7.351-18.13-24.963-30.422-45.253-30.422H140.6c-24.048,0-44.333,17.266-48.234,41.054
			c-2.054,12.528-5.449,24.891-10.537,36.536c-0.045,0.102-0.09,0.205-0.135,0.307c-0.077-0.022-0.155-0.04-0.232-0.061
			c-2.905-0.809-5.976-1.621-9.009-1.621c-5.243,0-10.423-0.279-15.554,1.004c-0.082,0.019-0.165,0.03-0.246,0.049
			C45.031,146.558,39.494,94.528,71.028,25.869c2.034-4.43,7.321-6.424,11.788-4.444c37.791,16.745,62.857,11.043,94.592,3.824
			C198.525,20.445,222.458,15,255.948,15c39.68,0,78.248,10.584,111.534,30.608c5.672,3.412,17.532,11.803,18.045,12.189
			c3.31,2.489,8.012,1.823,10.502-1.487c2.489-3.31,1.823-8.012-1.487-10.502c-6.365-4.787-13.338-9.487-20.161-13.552
			C338.952,11.152,298.021,0,255.948,0c-35.173,0-59.98,5.644-81.867,10.623c-30.159,6.861-51.948,11.818-85.188-2.912
			C76.966,2.425,62.836,7.764,57.396,19.608C23.628,93.134,29.978,149.369,42.7,185.26c-14.857,8.691-24.644,24.792-24.644,43.08
			c0,27.516,22.386,49.902,49.902,49.902c0.25,0,0.502-0.01,0.753-0.014c9.66,27.203,25.783,52.122,47.634,73.001
			c1.026,0.981,2.065,1.944,3.11,2.9c-15.995,19.961-34.603,50.738-41.745,91.609c-3.343,19.145-3.931,39.183-1.749,59.559
			C76.37,509.11,79.586,512,83.419,512h345.17c3.833,0,7.049-2.89,7.458-6.701c2.182-20.374,1.593-40.412-1.75-59.562
			c-3.509-20.044-10.06-39.389-19.472-57.496c-6.242-12.006-13.747-23.461-22.336-34.153c1.029-0.942,2.053-1.891,3.063-2.857
			c21.852-20.88,37.975-45.799,47.635-73.003c0.285,0.005,0.571,0.016,0.855,0.016c27.517,0,49.903-22.386,49.903-49.902
			C493.945,215.131,488.83,203.066,480.394,194.105z M61.458,210.993c-1.792,1.648-3.277,3.757-3.273,6.283
			c0.011,5.85,0.308,11.702,0.873,17.521c0.928,9.58,2.595,19.01,4.985,28.226c-17.409-1.952-30.988-16.761-30.988-34.683
			c0-17.409,13.517-32.656,30.821-34.663h8.164c0.859,0.1,1.711,0.236,2.557,0.399C68.531,204.113,63.069,209.512,61.458,210.993z
			 M165.431,497h-18.987v-50.213c0-4.142-3.358-7.5-7.5-7.5c-4.142,0-7.5,3.358-7.5,7.5V497h-41.18
			c-1.258-16.666-0.514-33.01,2.222-48.679c6.568-37.581,23.643-65.971,38.408-84.478c0.182,0.143,0.368,0.279,0.55,0.421v52.779
			c0,4.142,3.358,7.5,7.5,7.5c4.142,0,7.5-3.358,7.5-7.5v-42.158c6.132,3.925,12.474,7.491,18.987,10.713V497z M225.453,497h-45.021
			V392.277c3.126,1.238,6.288,2.392,9.479,3.473l12.65,31.228c3.035,7.493,10.231,12.335,18.334,12.336c0.001,0,0.001,0,0.002,0
			c4.919,0,9.503-1.765,13.113-5.011l4.489,11.493L225.453,497z M224.382,422.75c-2.323,2.567-6.627,1.787-7.919-1.403l-8.24-20.343
			c8.958,2.119,18.108,3.639,27.396,4.543c0.011,0.001,0.022,0.002,0.034,0.003c1.324,0.115,2.648,0.246,3.973,0.35L224.382,422.75z
			 M240.932,497l11.257-44.186h7.62L271.066,497H240.932z M245.301,421.985l0.312-0.345L256,410.16l10.626,11.746l-6.212,15.908
			h-8.93L245.301,421.985z M331.464,497h-44.919l-13.085-51.361l4.455-11.407c3.621,3.289,8.233,5.083,13.188,5.083
			c8.103,0,15.3-4.842,18.335-12.336l12.665-31.267c3.151-1.069,6.273-2.211,9.361-3.434V497z M272.366,405.891
			c0.351-0.028,0.701-0.064,1.051-0.093c10.31-0.86,20.458-2.469,30.37-4.82c0,0-8.248,20.364-8.25,20.369
			c-1.282,3.166-5.597,3.97-7.92,1.403L272.366,405.891z M365.453,497h-18.988V385.599c6.514-3.222,12.856-6.789,18.988-10.713V497z
			 M401.514,395.159c8.704,16.745,14.762,34.632,18.006,53.161c2.736,15.671,3.48,32.017,2.223,48.68h-41.29V364.264
			c0.202-0.158,0.408-0.311,0.61-0.469C388.927,373.626,395.79,384.148,401.514,395.159z M430.754,268.01
			c-0.062,0.194-0.107,0.391-0.153,0.588c-8.654,26.815-24.064,51.387-45.414,71.788c-34.501,32.967-81.623,51.151-129.24,51.151
			c-46.446,0-92.457-17.303-126.73-48.8C107.285,322.581,90.464,297,81.299,268.616c-0.046-0.199-0.092-0.398-0.155-0.594
			c-4.899-15.326-7.582-31.436-7.921-47.524c4.073-4.052,11.87-12.949,19.241-27.683c0.015-0.028,0.029-0.056,0.051-0.101
			c7.233-14.704,11.986-30.542,14.639-46.693c0.004-0.026,0.01-0.052,0.014-0.078c2.705-16.502,16.765-28.48,33.431-28.48h230.8
			c15.103,0,28.066,9.837,32.378,23.964c4.097,13.422,5.652,27.423,10.887,40.521c5.623,14.067,13.374,27.583,24.011,38.472
			C438.341,236.556,435.66,252.636,430.754,268.01z M447.85,263.035c2.391-9.217,4.058-18.648,4.987-28.23
			c0.399-4.042,0.653-8.098,0.78-12.156c0.129-4.119,0.739-8.315-2.707-11.322c-0.984-0.859-6.933-6.277-13.561-17.242
			c0.863-0.167,10.774-0.407,10.774-0.407c17.373,0.331,30.821,18.36,30.821,34.663C478.944,246.298,465.311,261.131,447.85,263.035
			z"/>
	</g>
</g>
<g>
</g>
<g>
</g>
<g>
</g>
<g>
</g>
<g>
</g>
<g>
</g>
<g>
</g>
<g>
</g>
<g>
</g>
<g>
</g>
<g>
</g>
<g>
</g>
<g>
</g>
<g>
</g>
<g>
</g>
</svg>
