<?xml version="1.0" encoding="iso-8859-1"?>
<!-- Generator: Adobe Illustrator 19.0.0, SVG Export Plug-In . SVG Version: 6.00 Build 0)  -->
<svg version="1.1" id="Capa_1" xmlns="http://www.w3.org/2000/svg" xmlns:xlink="http://www.w3.org/1999/xlink" x="0px" y="0px"
	 viewBox="0 0 512 512" style="enable-background:new 0 0 512 512;" xml:space="preserve">
<g>
	<g>
		<path d="M359.317,223.68c-4.142,0-7.5,3.358-7.5,7.5v20.099c0,4.141,3.358,7.499,7.5,7.499c4.142,0,7.5-3.358,7.5-7.5V231.18
			C366.817,227.038,363.459,223.68,359.317,223.68z"/>
	</g>
</g>
<g>
	<g>
		<path d="M373.004,273.32h-27.375c-4.142,0-7.5,3.358-7.5,7.5c0,4.142,3.358,7.5,7.5,7.5h27.375c4.143,0,7.5-3.358,7.5-7.5
			C380.504,276.678,377.146,273.32,373.004,273.32z"/>
	</g>
</g>
<g>
	<g>
		<path d="M152.581,223.68c-4.142,0-7.5,3.358-7.5,7.5v20.099c0,4.141,3.358,7.499,7.5,7.499c4.142,0,7.5-3.358,7.5-7.5V231.18
			C160.081,227.038,156.723,223.68,152.581,223.68z"/>
	</g>
</g>
<g>
	<g>
		<path d="M166.268,273.32h-27.375c-4.142,0-7.5,3.358-7.5,7.5c0,4.142,3.358,7.5,7.5,7.5h27.375c4.142,0,7.5-3.358,7.5-7.5
			C173.768,276.678,170.41,273.32,166.268,273.32z"/>
	</g>
</g>
<g>
	<g>
		<path d="M279.373,265.858c-3.119-2.726-7.856-2.408-10.583,0.711c-3.119,3.569-7.8,5.616-12.841,5.616
			c-5.041,0-9.722-2.047-12.842-5.616c-2.726-3.119-7.464-3.438-10.583-0.71c-3.119,2.726-3.437,7.464-0.71,10.583
			c5.968,6.828,14.765,10.744,24.135,10.744c9.37,0,18.167-3.916,24.135-10.744C282.81,273.322,282.492,268.584,279.373,265.858z"/>
	</g>
</g>
<g>
	<g>
		<path d="M498.976,308.801c-9.087-15.002-13.286-27.931-15.208-36.135c-1.241-5.296-1.717-9.346-1.901-11.772
			c7.548-8.746,12.128-20.122,12.128-32.554c0-13.211-5.115-25.275-13.551-34.237c-4.497-40.659-20.706-79.013-46.988-111.076
			c-2.923-3.566-7.569-5.528-11.59-2.18c-4.039,3.363-2.811,8.126-0.013,11.686c21.533,26.27,35.796,57.062,41.74,89.849
			c-2.789-1.177-5.712-2.108-8.762-2.773c-2.019-0.44-4.169-0.932-6.245-0.932h-3.912c-0.18-0.063-9.262-3.274-13.472-5.047
			c-33.298-13.199-66.724-29.686-94.3-52.834c-6.876-5.772-13.367-12.009-19.301-18.75c-2.918-3.314-8.447-3.269-11.328,0.076
			c-1.947,2.264-4.169,4.279-6.375,6.285c-0.008,0.007-0.017,0.015-0.025,0.022c-12.178,11.011-42.313,34.176-95.089,50.9
			c-36.192,11.469-74.05,17.086-111.914,18.814c-0.031,0.001-0.062,0.003-0.093,0.005c-9.782,0.459-19.576,0.529-29.367,0.529
			c-5,0-10.451,1.783-15.013,3.708c2.576-14.255,6.72-28.125,12.393-41.467c0.321,0.233,0.662,0.441,1.019,0.668
			c3.652,2.319,8.016,3.352,12.315,3.352c13.712,0,30.922-9.76,46.774-26.34c0.284-0.297,0.569-0.593,0.85-0.893
			c1.064,0.142,2.14,0.24,3.235,0.24c5.02-0.184,10.036-1.244,14.996-2.003c2.376-0.364,4.648-1.057,6.77-2.042
			c15.235,8.577,30.191,13.275,42.499,13.276c11.605,0,20.209-4.273,24.226-12.032c3.278-6.333,4.619-17.396-6.646-34.715
			c4.031-14.348,3.337-25.373-2.076-32.804c-3.936-5.403-10.21-8.379-17.669-8.379c-13.959,0-31.542,10.109-47.627,27.232
			c-1.064-0.142-2.141-0.24-3.236-0.24c-1.265,0-2.545,0.098-3.802,0.29l-11.194,1.712c-2.398,0.367-4.662,1.072-6.758,2.048
			c-0.272-0.153-1.58-0.885-1.963-1.092c9.844-8.803,20.514-16.687,31.796-23.487c0.056-0.034,0.111-0.068,0.165-0.103
			C177.752,25.584,216.32,15,256,15s78.248,10.584,111.534,30.608c11.833,7.119,23.049,15.478,33.337,24.845
			c3.062,2.788,7.806,2.566,10.595-0.497s2.566-7.806-0.497-10.595c-11.015-10.03-23.027-18.981-35.704-26.607
			C339.645,11.327,298.403,0,256,0c-42.073,0-83.003,11.151-118.432,32.255c-0.753,0.306-1.42,0.72-1.998,1.208
			c-13.551,8.264-26.254,17.996-37.805,28.932c-9.257-3.517-18.057-5.387-25.802-5.387c-11.609,0-20.215,4.273-24.232,12.034
			c-3.278,6.332-4.618,17.395,6.647,34.713c-2.192,7.801-2.975,14.611-2.374,20.403c-10.875,22.023-17.745,45.524-20.442,69.938
			c-8.44,8.962-13.557,21.029-13.557,34.243c0,12.439,4.585,23.82,12.14,32.568c-0.472,6.482-3.063,24.683-17.121,47.893
			c-7.254,11.976-4.917,27.262,5.558,36.347c16.491,14.303,43.289,32.288,80.006,40.379c-0.488,0.905-0.989,1.803-1.462,2.714
			c-9.412,18.105-15.964,37.45-19.474,57.5c-3.343,19.147-3.931,39.186-1.749,59.559C76.311,509.11,79.527,512,83.36,512h55.58
			h234.12h55.47c3.833,0,7.049-2.89,7.458-6.701c2.182-20.372,1.593-40.411-1.749-59.56c-4.094-23.427-11.958-43.53-20.935-60.188
			c36.772-8.079,63.608-26.084,80.116-40.403C503.893,336.063,506.23,320.776,498.976,308.801z M187.086,54.248
			c3.527,0,4.853,1.261,5.544,2.209c1.015,1.394,3.931,7.164-1.15,22.927c-0.725,2.247-0.349,4.704,1.015,6.631
			c8.161,11.542,9.309,19.053,7.661,22.234c-1.292,2.497-5.267,3.928-10.909,3.928c-8.599-0.001-19.598-3.271-31.017-9.125
			c0.006-0.011,0.011-0.024,0.017-0.035c3.285-6.119,3.813-13.593,1.496-20.13c-1.281-3.618-3.355-6.873-6.064-9.521
			C167.829,59.389,180.231,54.248,187.086,54.248z M123.495,83.069l11.194-1.712c5.321-0.811,10.577,3.047,11.391,8.368
			c0.815,5.328-3.012,10.571-8.368,11.391c0,0-11.19,1.712-11.193,1.713c-5.285,0.809-10.579-3.068-11.391-8.368
			C114.309,89.103,118.146,83.888,123.495,83.069z M61.052,75.938c1.293-2.497,5.27-3.929,10.911-3.929
			c6.965,0,15.508,2.148,24.574,6.077c2.148,0.931,6.413,3.033,6.443,3.048c-0.017,0.032-0.031,0.066-0.048,0.098
			c-2.504,4.686-3.438,10.281-2.626,15.525c0.809,5.225,3.407,10.332,7.219,14.06c-8.583,8.462-20.605,19.122-33.402,19.122
			c-2.523,0-5.005-0.81-6.139-3.243c-1.15-2.469-2.523-8.657,1.743-21.894c0.724-2.247,0.348-4.704-1.015-6.631
			C60.553,86.63,59.405,79.119,61.052,75.938z M452.884,234.848c1.306-13.426,1.116-27.032-0.593-40.414
			c5.907,1.415,11.316,4.323,15.821,8.599c6.882,6.532,10.884,15.73,10.884,25.308c0,10.665-4.81,20.23-12.391,26.651
			c-5.169,4.373-11.622,7.272-18.705,8.044C450.287,253.833,451.953,244.416,452.884,234.848z M74.905,194.026
			c0.018-0.128,0.038-0.256,0.057-0.385c0.374-0.004,0.738-0.015,1.111-0.02c39.644-0.519,79.37-5.124,117.697-15.459
			c22.686-6.117,44.937-14.188,65.878-24.891c27.212-13.861,44.028-27.756,52.159-35.412c40.717,41.896,107.3,67.621,124.96,73.942
			c0.136,0.88,0.267,1.761,0.39,2.644c1.917,13.803,2.095,27.917,0.498,41.762c-4.967,43.065-27.143,83.074-60.235,111.2
			c-0.085,0.073-0.169,0.148-0.253,0.222c-30.272,25.637-68.41,40.844-108.536,43.491c-0.195,0.013-0.391,0.022-0.586,0.034
			c-8.029,0.492-16.066,0.489-24.095,0c-0.195-0.012-0.391-0.022-0.586-0.034c-40.16-2.65-78.325-17.881-108.61-43.558
			c-24.414-21.14-43.976-48.4-53.541-79.476c-0.008-0.025-0.012-0.051-0.02-0.076c-3.235-10.118-5.492-20.493-6.756-31.005
			c-0.01-0.084-0.02-0.169-0.03-0.254C72.768,222.537,72.912,208.198,74.905,194.026z M43.888,203.032
			c4.505-4.276,9.914-7.185,15.822-8.599c-0.034,0.268-0.057,0.537-0.09,0.805c-1.506,12.222-1.756,24.599-0.748,36.871
			c0.072,0.876,0.065,1.819,0.238,2.681c0.929,9.586,2.596,19.022,4.988,28.244c-17.459-1.904-31.093-16.737-31.093-34.695
			C33.005,218.811,36.994,209.581,43.888,203.032z M28.41,333.817c-4.939-4.284-6.014-11.537-2.556-17.245
			c11.033-18.215,15.8-33.979,17.854-44.565c4.231,2.355,8.783,4.046,13.533,5.076c3.718,0.806,7.512,1.199,11.317,1.148
			c0.07-0.001,0.138,0.004,0.208,0.003c9.661,27.202,25.783,52.119,47.633,72.997c1.007,0.963,2.028,1.908,3.053,2.847
			c-4.076,5.076-12.383,17.112-12.823,17.795C70.474,365.027,44.263,347.567,28.41,333.817z M365.559,497H146.44v-46.58
			c0-5.486,4.468-9.95,9.96-9.95h20.194c23.452,2.248,55.112,9.8,73.538,32.942c2.96,3.718,8.779,3.714,11.735,0
			c2.063-2.591,4.299-4.976,6.663-7.19c18.757-17.566,46.049-23.755,66.875-25.752c0,0,20.174,0,20.194,0
			c5.404,0,9.96,4.555,9.96,9.95V497z M419.46,448.319c2.737,15.673,3.481,32.019,2.224,48.681H380.56c0,0,0-46.579,0-46.58
			c0-13.531-11.344-24.95-24.96-24.95c0,0-21.018,0.011-21.251,0.033c-21.874,2.055-50.376,8.389-71.906,26.097
			c-2.227,1.832-4.38,3.785-6.443,5.869c-22.005-22.221-54.213-29.698-78.348-31.966c-0.233-0.022-21.251-0.033-21.251-0.033
			c-13.763,0-24.96,11.192-24.96,24.95V497H90.205c-1.257-16.663-0.513-33.008,2.222-48.677
			c3.245-18.534,9.303-36.421,18.007-53.164c5.268-10.134,11.466-19.758,18.445-28.796c0.566-0.732,1.911-2.439,2.011-2.564
			c30.825,24.224,68.178,38.766,107.947,42.024c0.076,0.006,0.151,0.012,0.227,0.019c11.26,0.944,22.601,0.915,33.861,0
			c0.075-0.006,0.15-0.012,0.225-0.018c39.748-3.254,77.084-17.779,107.9-41.979c0.051,0.064,3.245,3.796,4.425,5.763
			C399.082,388.04,413.54,414.443,419.46,448.319z M483.59,333.817c-15.858,13.754-42.083,31.221-78.311,38.071
			c-1.303-2.025-2.656-4.022-4.031-6.005c-2.752-3.969-5.637-7.846-8.65-11.621c-0.035-0.044-0.069-0.089-0.104-0.133
			c1.044-0.956,2.083-1.918,3.108-2.898c21.848-20.877,37.97-45.792,47.63-72.997c0.069,0.001,0.137-0.004,0.206-0.003
			c3.865,0.041,7.772-0.372,11.546-1.199c4.589-1.006,9.166-2.72,13.307-5.024c2.053,10.586,6.82,26.35,17.854,44.565
			C489.604,322.281,488.529,329.533,483.59,333.817z"/>
	</g>
</g>
<g>
</g>
<g>
</g>
<g>
</g>
<g>
</g>
<g>
</g>
<g>
</g>
<g>
</g>
<g>
</g>
<g>
</g>
<g>
</g>
<g>
</g>
<g>
</g>
<g>
</g>
<g>
</g>
<g>
</g>
</svg>
