<?xml version="1.0" encoding="iso-8859-1"?>
<!-- Generator: Adobe Illustrator 21.0.0, SVG Export Plug-In . SVG Version: 6.00 Build 0)  -->
<svg version="1.1" id="Capa_1" xmlns="http://www.w3.org/2000/svg" xmlns:xlink="http://www.w3.org/1999/xlink" x="0px" y="0px"
	 viewBox="0 0 512.036 512.036" style="enable-background:new 0 0 512.036 512.036;" xml:space="preserve">
<g>
	<g>
		<g>
			<path d="M256.018,63.117c20.036-9.987,43.282-11.358,64.353-3.796l4.502-17.832l-47.228-13.506
				c-7.545-2.198-12.751-9.091-12.8-16.949V0h-17.655v11.034c-0.049,7.858-5.255,14.751-12.8,16.949L187.251,41.49l4.414,17.832
				C212.73,51.716,235.993,53.088,256.018,63.117z"/>
			<path d="M313.848,495.863l-4.414-3.001c-13.319-8.877-28.647-14.281-44.588-15.722v-35.866
				c41.565-1.371,82.911-6.626,123.498-15.695c-2.472-179.377-100.899-247.879-101.959-248.585c-2.43-1.654-3.878-4.41-3.86-7.35
				c0.018-2.94,1.498-5.678,3.948-7.303c33.721-22.069,39.106-66.119,39.989-79.272c-22.422-18.626-58.35-8.739-64.265-2.913
				c-1.632,1.652-3.857,2.582-6.179,2.582c-2.322,0-4.547-0.93-6.179-2.582c-5.914-5.826-41.843-15.713-64.265,2.913
				c0.883,13.153,6.356,57.291,39.989,79.272c2.45,1.625,3.93,4.363,3.948,7.303c0.018,2.94-1.43,5.696-3.86,7.35
				c-0.971,0.706-99.487,69.826-101.959,248.585c40.589,9.058,81.934,14.312,123.498,15.695v35.866
				c-15.941,1.441-31.269,6.845-44.588,15.722l-4.414,2.966c-4.056,2.706-5.151,8.188-2.445,12.244
				c2.706,4.056,8.188,5.151,12.244,2.445l4.414-2.966c10.427-6.905,22.356-11.212,34.79-12.562v8.183
				c0,4.875,3.952,8.828,8.828,8.828c4.875,0,8.828-3.952,8.828-8.828v-8.183c12.436,1.36,24.366,5.68,34.79,12.597l4.414,2.966
				c2.624,1.75,5.982,1.968,8.81,0.571s4.695-4.197,4.899-7.345C317.963,500.631,316.472,497.614,313.848,495.863z M282.59,228.269
				c0.331-2.318,1.569-4.409,3.442-5.814c1.873-1.405,4.227-2.008,6.545-1.677s4.409,1.569,5.814,3.442
				c24.364,32.221,57.732,76.447,63.559,172.491c0.247,4.86-3.444,9.022-8.298,9.357h-0.53c-4.676,0.008-8.547-3.631-8.828-8.298
				c-5.473-90.748-36.988-132.502-60.028-162.957C282.862,232.941,282.259,230.587,282.59,228.269z M227.77,234.814
				c-23.04,30.543-54.554,72.386-60.028,162.957c-0.281,4.667-4.152,8.306-8.828,8.298h-0.53c-4.854-0.335-8.545-4.498-8.298-9.357
				c5.826-95.868,39.194-140.182,63.559-172.491c2.925-3.9,8.458-4.691,12.359-1.766C229.905,225.38,230.695,230.914,227.77,234.814
				z"/>
		</g>
	</g>
</g>
<g>
</g>
<g>
</g>
<g>
</g>
<g>
</g>
<g>
</g>
<g>
</g>
<g>
</g>
<g>
</g>
<g>
</g>
<g>
</g>
<g>
</g>
<g>
</g>
<g>
</g>
<g>
</g>
<g>
</g>
</svg>
